<?xml version="1.0" standalone="no"?>
<!DOCTYPE svg PUBLIC "-//W3C//DTD SVG 20010904//EN"
 "http://www.w3.org/TR/2001/REC-SVG-20010904/DTD/svg10.dtd">
<svg version="1.0" xmlns="http://www.w3.org/2000/svg"
 width="468.000000pt" height="468.000000pt" viewBox="0 0 468.000000 468.000000"
 preserveAspectRatio="xMidYMid meet">
<metadata>
Created by potrace 1.11, written by Peter Selinger 2001-2013
</metadata>
<g transform="translate(0.000000,468.000000) scale(0.100000,-0.100000)"
fill="#000000" stroke="none">
<path d="M0 4200 l0 -480 1410 0 1410 0 0 480 0 480 -1410 0 -1410 0 0 -480z"/>
<path d="M3770 4200 l0 -480 455 0 455 0 0 480 0 480 -455 0 -455 0 0 -480z"/>
<path d="M0 2960 l0 -480 1135 0 1135 0 0 480 0 480 -1135 0 -1135 0 0 -480z"/>
<path d="M3280 2960 l0 -480 700 0 700 0 0 480 0 480 -700 0 -700 0 0 -480z"/>
<path d="M0 1720 l0 -480 555 0 555 0 0 480 0 480 -555 0 -555 0 0 -480z"/>
<path d="M2530 1720 l0 -480 1075 0 1075 0 0 480 0 480 -1075 0 -1075 0 0
-480z"/>
<path d="M0 480 l0 -480 880 0 880 0 0 480 0 480 -880 0 -880 0 0 -480z"/>
<path d="M2930 480 l0 -480 875 0 875 0 0 480 0 480 -875 0 -875 0 0 -480z"/>
</g>
</svg>
